<?xml version="1.0" encoding="UTF-8" standalone="no"?>
<svg
   xmlns:dc="http://purl.org/dc/elements/1.1/"
   xmlns:cc="http://creativecommons.org/ns#"
   xmlns:rdf="http://www.w3.org/1999/02/22-rdf-syntax-ns#"
   xmlns:svg="http://www.w3.org/2000/svg"
   xmlns="http://www.w3.org/2000/svg"
   xmlns:sodipodi="http://sodipodi.sourceforge.net/DTD/sodipodi-0.dtd"
   xmlns:inkscape="http://www.inkscape.org/namespaces/inkscape"
   version="1.1"
   id="svg2"
   xml:space="preserve"
   width="276.85333"
   height="368.28"
   viewBox="0 0 276.85333 368.28"
   sodipodi:docname="logo-zse-wektor.eps"><metadata
     id="metadata8"><rdf:RDF><cc:Work
         rdf:about=""><dc:format>image/svg+xml</dc:format><dc:type
           rdf:resource="http://purl.org/dc/dcmitype/StillImage" /></cc:Work></rdf:RDF></metadata><defs
     id="defs6" /><sodipodi:namedview
     pagecolor="#ffffff"
     bordercolor="#666666"
     borderopacity="1"
     objecttolerance="10"
     gridtolerance="10"
     guidetolerance="10"
     inkscape:pageopacity="0"
     inkscape:pageshadow="2"
     inkscape:window-width="640"
     inkscape:window-height="480"
     id="namedview4" /><g
     id="g10"
     inkscape:groupmode="layer"
     inkscape:label="ink_ext_XXXXXX"
     transform="matrix(1.3333333,0,0,-1.3333333,0,368.28)"><g
       id="g12"
       transform="scale(0.1)"><g
         id="g14"
         transform="scale(10)"><g
           aria-label="Z"
           transform="matrix(1,0,0,-0.91759956,52.2828,157.643)"
           id="text18"
           style="font-variant:normal;font-weight:bold;font-size:35.0201px;font-family:Arial;-inkscape-font-specification:Arial-BoldMT;writing-mode:lr-tb;fill:#d51f39;fill-opacity:1;fill-rule:nonzero;stroke:none"><path
             d="M 0.37619248,0 V -4.5656087 L 13.542929,-20.827383 H 1.8638627 v -4.240716 H 20.211796 v 3.932922 L 6.4807704,-4.2236155 H 20.741885 V 0 Z"
             id="path38" /></g><g
           aria-label="S"
           transform="matrix(1,0,0,-0.91844232,133.256,157.829)"
           id="text22"
           style="font-variant:normal;font-weight:bold;font-size:35.0361px;font-family:Arial;-inkscape-font-specification:Arial-BoldMT;writing-mode:lr-tb;fill:#d51f39;fill-opacity:1;fill-rule:nonzero;stroke:none"><path
             d="m 1.2659528,-8.1602632 4.9269513,-0.4790091 q 0.4447942,2.4805831 1.7962844,3.6438911 1.3685976,1.1633079 3.6781065,1.1633079 2.446368,0 3.678106,-1.0264482 1.248845,-1.0435556 1.248845,-2.4292607 0,-0.8895884 -0.530332,-1.5054574 -0.513224,-0.6329763 -1.813392,-1.094878 -0.889588,-0.3079344 -4.05447,-1.0948784 -4.0715778,-1.00934 -5.7138949,-2.480583 -2.3095084,-2.070004 -2.3095084,-5.046703 0,-1.916037 1.0777706,-3.575462 1.0948781,-1.676532 3.130667,-2.549013 2.0528964,-0.872481 4.9440587,-0.872481 4.721662,0 7.0996,2.070004 2.395046,2.070004 2.514798,5.525713 l -5.063811,0.222397 q -0.325042,-1.933144 -1.402812,-2.77141 -1.060664,-0.855374 -3.199097,-0.855374 -2.2068639,0 -3.4557092,0.906696 -0.8040511,0.581654 -0.8040511,1.55678 0,0.889589 0.7527287,1.522565 0.9580183,0.804051 4.6532316,1.676532 3.695214,0.872481 5.457283,1.813392 1.779177,0.923803 2.77141,2.549013 1.009341,1.608102 1.009341,3.9860403 0,2.1555412 -1.197523,4.0373629 -1.197523,1.8818217 -3.387279,2.80562511 -2.189756,0.90669591 -5.457283,0.90669591 -4.7558765,0 -7.3048896,-2.18975612 -2.549013,-2.2068637 -3.0451296,-6.4153013 z"
             id="path41" /></g><g
           aria-label="E"
           transform="matrix(1,0,0,-0.94741829,52.7699,87.6)"
           id="text26"
           style="font-variant:normal;font-weight:bold;font-size:34.2841px;font-family:Arial;-inkscape-font-specification:Arial-BoldMT;writing-mode:lr-tb;fill:#d51f39;fill-opacity:1;fill-rule:nonzero;stroke:none"><path
             d="M 2.4943022,0 V -24.541255 H 20.69099 v 4.15159 H 7.4494259 v 5.440592 H 19.770274 v 4.13485 H 7.4494259 v 6.6793731 H 21.159718 V 0 Z"
             id="path44" /></g></g><path
         d="m 1038.98,2181.62 c -435.898,0 -791.406,-362.93 -791.406,-807.95 0,-445.022 355.508,-807.951 791.406,-807.951 435.92,0 791.43,362.929 791.43,807.951 0,445.02 -355.51,807.95 -791.43,807.95 z m 160.83,156.31 c 144.47,-25.11 278.11,-83.36 393.06,-166.88 l 66.29,67.68 227.44,-232.19 -66.35,-67.73 c 81.83,-117.47 138.86,-254.04 163.37,-401.69 h 92.78 v -328.35 h -93.03 c -24.71,-147.6 -81.99,-284.122 -163.99,-401.469 l 66.1,-67.481 -227.43,-232.191 -66.41,67.801 C 1476.56,492.09 1342.79,434.039 1198.24,409.172 v -95.32 H 876.598 v 95.839 C 732.32,435.02 598.863,493.43 484.121,577.039 L 417.246,508.77 189.809,740.949 257.027,809.57 C 175.559,926.828 118.766,1063.11 94.3359,1210.37 H 0 v 328.36 h 94.625 c 24.672,147.18 81.699,283.35 163.363,400.48 l -67.066,68.47 227.437,232.18 67.133,-68.54 c 114.852,83.37 248.363,141.52 392.676,166.61 v 95.71 h 321.642 v -95.71 0"
         style="fill:#5f91cf;fill-opacity:1;fill-rule:evenodd;stroke:none"
         id="path28" /><path
         d="M 1528.21,1172.59 1287.74,830.852"
         style="fill:none;stroke:#e41e25;stroke-width:15;stroke-linecap:butt;stroke-linejoin:miter;stroke-miterlimit:22.9256;stroke-dasharray:none;stroke-opacity:1"
         id="path30" /><path
         d="m 1311.02,966.441 96.02,-72.421"
         style="fill:none;stroke:#e41e25;stroke-width:15;stroke-linecap:butt;stroke-linejoin:miter;stroke-miterlimit:22.9256;stroke-dasharray:none;stroke-opacity:1"
         id="path32" /><path
         d="m 1404.52,1129.32 -50.17,-203.992 179.91,106.852 z"
         style="fill:#d51f39;fill-opacity:1;fill-rule:evenodd;stroke:none"
         id="path34" /><path
         d="m 1551.85,2762.1 4.41,-154.86 259.04,117.63 L 894,1394.8 h 475.33 L 575.543,291.109 641.371,249.121 360.637,0 449.059,368.699 509.355,329.488 1102.34,1280.4 H 703.953 l 847.897,1481.7"
         style="fill:#d51f39;fill-opacity:1;fill-rule:evenodd;stroke:none"
         id="path36" /></g></g></svg>
